<svg xmlns="http://www.w3.org/2000/svg" fill="currentColor" viewBox="0 0 24 24" width="1em" height="1em" data-ppui="true"><path fill-rule="evenodd" d="M2 5.001v14a1 1 0 0 0 1 1h18a1 1 0 0 0 1-1v-14a1 1 0 0 0-1-1H3a1 1 0 0 0-1 1zm1.5.5v3.5h17v-3.5h-17zm11.491 8.344l-5.616-2.553a.441.441 0 0 0-.584.584l2.553 5.616a.44.44 0 0 0 .796.015l.643-1.287 1.272 1.272a.441.441 0 0 0 .624 0l.312-.312a.441.441 0 0 0 0-.623l-1.272-1.272 1.287-.644a.441.441 0 0 0-.015-.796z" clip-rule="evenodd" data-ppui="true"></path></svg>