<svg xmlns="http://www.w3.org/2000/svg" fill="currentColor" viewBox="0 0 24 24" width="1em" height="1em" data-ppui="true"><path fill-rule="evenodd" d="M13.89 8.22c-.708 1.665-3.07 1.665-3.779 0l1.765-.75-1.764.75-.008-.018a1.815 1.815 0 0 0-.615-.726C9.183 7.261 8.632 7 7.651 7c-1.102 0-1.87.538-2.293 1.377-.443.881-.558 2.245.14 3.809.645 1.448 1.97 2.958 3.445 4.127.723.573 1.43 1.022 2.029 1.318.299.147.55.246.745.305.181.055.271.063.283.064.001 0 .002 0 0 0h.001c.012-.001.102-.008.286-.064.196-.06.447-.158.746-.305.6-.296 1.307-.744 2.03-1.316 1.475-1.167 2.798-2.675 3.438-4.123l.003-.006c.697-1.563.583-2.928.14-3.81C18.22 7.539 17.451 7 16.35 7c-.982 0-1.533.26-1.839.476L13.36 5.841C14.02 5.375 14.979 5 16.35 5c3.76 0 5.79 3.94 3.98 8C18.7 16.69 14 20 12 20s-6.69-3.32-8.33-7c-1.81-4.06.22-8 3.98-8 1.371 0 2.329.376 2.99.841l.107.078a3.831 3.831 0 0 1 1.204 1.518c.018.043.08.043.098 0a3.581 3.581 0 0 1 .06-.132 3.827 3.827 0 0 1 1.25-1.464l1.152 1.635a1.813 1.813 0 0 0-.614.725l-.007.019z" clip-rule="evenodd" data-ppui="true"></path></svg>